# xmcd
#
# Track frame offsets: 
#        150
#        12654
#        25815
#        37275
#        50455
#        61069
#        73976
#        90728
#        101434
#        111953
#        126049
#        139627
#        148791
#        164325
#        175744
#        188302
#        199121
#        211356
#        227608
#        240986
#        253782
#        268291
#        280214
#        297391
#        310750
#
# Disc length: 4314 seconds
#
# Revision: 0
# Processed by: cddbd v1.5.1PL0 Copyright (c) Steve Scherf et al.
# Submitted via: ExactAudioCopy v0.95a5
#
DISCID=7410d819
DTITLE=Vsi Najboljsi Muzikanti - 50 zlatih viz - CD 2
DYEAR=2004
DGENRE=country
TTITLE0=Prinesi mi roze- ans. B. Kovacica
TTITLE1=Zivljenje je vrtiljak - ans. F. Lipicnika
TTITLE2=Ko se pticki zenijo - ans. V. Petrica
TTITLE3=Kadar pa mim hisce grem - ans. L. Slaka
TTITLE4=Po dekle - ans. L. Slaka
TTITLE5=V dolini tihi - ans. L. Slaka
TTITLE6=Domovina - ans. F. Korbarja
TTITLE7=Metuljcek zlat - Fantje treh dolin
TTITLE8=Ljubica, lahko noc - ans. T. Kmetca
TTITLE9=Polka, valcek, ronc&roll - ans. Hencek
TTITLE10=Veseli muzikinti - Slovenski muzikanti
TTITLE11=Creda v galopu - ans. F. Delcnjaka
TTITLE12=Ljubezen mamina - ans .f Flereta
TTITLE13=Ko v noso se odenem - Alpski kvintet
TTITLE14=Dobro jutro - Alpski kvintet
TTITLE15=Rno rozco ljubim - ans. M. Kumra
TTITLE16=Zingamo ga, zingamo - ans. T. Zagarja
TTITLE17=Zlati casi - Podjunski fantje
TTITLE18=Zakaj tako te ljubim - ans. O. Brajka
TTITLE19=Vsi na ples - ans. F. Mihelica
TTITLE20=Ljubezen je kriva za vse - ans. N. Zajca
TTITLE21=Harmonika - ans. bratov Poljansek
TTITLE22=Slovenija, od kot lepote tvoje - Avseniki
TTITLE23=Jaz sem pa en Franc Kosic - Avseniki
TTITLE24=Naj zivi vesela druzba - ans. I. Ruparja
EXTD=
EXTT0=
EXTT1=
EXTT2=
EXTT3=
EXTT4=
EXTT5=
EXTT6=
EXTT7=
EXTT8=
EXTT9=
EXTT10=
EXTT11=
EXTT12=
EXTT13=
EXTT14=
EXTT15=
EXTT16=
EXTT17=
EXTT18=
EXTT19=
EXTT20=
EXTT21=
EXTT22=
EXTT23=
EXTT24=
PLAYORDER=
